<svg id="visual" viewBox="0 0 960 540" width="960" height="540" xmlns="http://www.w3.org/2000/svg" xmlns:xlink="http://www.w3.org/1999/xlink" version="1.1"><path d="M0 28L22.8 27.2C45.7 26.3 91.3 24.7 137 26.5C182.7 28.3 228.3 33.7 274 35.3C319.7 37 365.3 35 411.2 39.5C457 44 503 55 548.8 58.7C594.7 62.3 640.3 58.7 686 56.8C731.7 55 777.3 55 823 49.7C868.7 44.3 914.3 33.7 937.2 28.3L960 23L960 0L937.2 0C914.3 0 868.7 0 823 0C777.3 0 731.7 0 686 0C640.3 0 594.7 0 548.8 0C503 0 457 0 411.2 0C365.3 0 319.7 0 274 0C228.3 0 182.7 0 137 0C91.3 0 45.7 0 22.8 0L0 0Z" fill="#cbd4e4"></path><path d="M0 66L22.8 63.3C45.7 60.7 91.3 55.3 137 56.2C182.7 57 228.3 64 274 69.3C319.7 74.7 365.3 78.3 411.2 82.8C457 87.3 503 92.7 548.8 90.8C594.7 89 640.3 80 686 75.5C731.7 71 777.3 71 823 72C868.7 73 914.3 75 937.2 76L960 77L960 21L937.2 26.3C914.3 31.7 868.7 42.3 823 47.7C777.3 53 731.7 53 686 54.8C640.3 56.7 594.7 60.3 548.8 56.7C503 53 457 42 411.2 37.5C365.3 33 319.7 35 274 33.3C228.3 31.7 182.7 26.3 137 24.5C91.3 22.7 45.7 24.3 22.8 25.2L0 26Z" fill="#c5cee1"></path><path d="M0 120L22.8 118.2C45.7 116.3 91.3 112.7 137 110.8C182.7 109 228.3 109 274 109.8C319.7 110.7 365.3 112.3 411.2 120.5C457 128.7 503 143.3 548.8 143.3C594.7 143.3 640.3 128.7 686 125.8C731.7 123 777.3 132 823 131.2C868.7 130.3 914.3 119.7 937.2 114.3L960 109L960 75L937.2 74C914.3 73 868.7 71 823 70C777.3 69 731.7 69 686 73.5C640.3 78 594.7 87 548.8 88.8C503 90.7 457 85.3 411.2 80.8C365.3 76.3 319.7 72.7 274 67.3C228.3 62 182.7 55 137 54.2C91.3 53.3 45.7 58.7 22.8 61.3L0 64Z" fill="#bfc9dd"></path><path d="M0 163L22.8 163.8C45.7 164.7 91.3 166.3 137 161.8C182.7 157.3 228.3 146.7 274 141.3C319.7 136 365.3 136 411.2 148.7C457 161.3 503 186.7 548.8 193C594.7 199.3 640.3 186.7 686 184.8C731.7 183 777.3 192 823 191C868.7 190 914.3 179 937.2 173.5L960 168L960 107L937.2 112.3C914.3 117.7 868.7 128.3 823 129.2C777.3 130 731.7 121 686 123.8C640.3 126.7 594.7 141.3 548.8 141.3C503 141.3 457 126.7 411.2 118.5C365.3 110.3 319.7 108.7 274 107.8C228.3 107 182.7 107 137 108.8C91.3 110.7 45.7 114.3 22.8 116.2L0 118Z" fill="#bac3da"></path><path d="M0 260L22.8 269C45.7 278 91.3 296 137 300.5C182.7 305 228.3 296 274 299.7C319.7 303.3 365.3 319.7 411.2 316.2C457 312.7 503 289.3 548.8 280.3C594.7 271.3 640.3 276.7 686 293.7C731.7 310.7 777.3 339.3 823 332.2C868.7 325 914.3 282 937.2 260.5L960 239L960 166L937.2 171.5C914.3 177 868.7 188 823 189C777.3 190 731.7 181 686 182.8C640.3 184.7 594.7 197.3 548.8 191C503 184.7 457 159.3 411.2 146.7C365.3 134 319.7 134 274 139.3C228.3 144.7 182.7 155.3 137 159.8C91.3 164.3 45.7 162.7 22.8 161.8L0 161Z" fill="#b1bbd4"></path><path d="M0 401L22.8 402.7C45.7 404.3 91.3 407.7 137 400.3C182.7 393 228.3 375 274 376.8C319.7 378.7 365.3 400.3 411.2 413C457 425.7 503 429.3 548.8 424C594.7 418.7 640.3 404.3 686 401.7C731.7 399 777.3 408 823 412.5C868.7 417 914.3 417 937.2 417L960 417L960 237L937.2 258.5C914.3 280 868.7 323 823 330.2C777.3 337.3 731.7 308.7 686 291.7C640.3 274.7 594.7 269.3 548.8 278.3C503 287.3 457 310.7 411.2 314.2C365.3 317.7 319.7 301.3 274 297.7C228.3 294 182.7 303 137 298.5C91.3 294 45.7 276 22.8 267L0 258Z" fill="#a6b0cb"></path><path d="M0 465L22.8 461.5C45.7 458 91.3 451 137 443C182.7 435 228.3 426 274 428.7C319.7 431.3 365.3 445.7 411.2 452C457 458.3 503 456.7 548.8 449.5C594.7 442.3 640.3 429.7 686 436.8C731.7 444 777.3 471 823 479C868.7 487 914.3 476 937.2 470.5L960 465L960 415L937.2 415C914.3 415 868.7 415 823 410.5C777.3 406 731.7 397 686 399.7C640.3 402.3 594.7 416.7 548.8 422C503 427.3 457 423.7 411.2 411C365.3 398.3 319.7 376.7 274 374.8C228.3 373 182.7 391 137 398.3C91.3 405.7 45.7 402.3 22.8 400.7L0 399Z" fill="#9ba5c3"></path><path d="M0 541L22.8 541C45.7 541 91.3 541 137 541C182.7 541 228.3 541 274 541C319.7 541 365.3 541 411.2 541C457 541 503 541 548.8 541C594.7 541 640.3 541 686 541C731.7 541 777.3 541 823 541C868.7 541 914.3 541 937.2 541L960 541L960 463L937.2 468.5C914.3 474 868.7 485 823 477C777.3 469 731.7 442 686 434.8C640.3 427.7 594.7 440.3 548.8 447.5C503 454.7 457 456.3 411.2 450C365.3 443.7 319.7 429.3 274 426.7C228.3 424 182.7 433 137 441C91.3 449 45.7 456 22.8 459.5L0 463Z" fill="#909bba"></path></svg>